<?xml version="1.0" encoding="UTF-8"?>
<svg width="87.629mm" height="20.996mm" version="1.1" viewBox="0 0 87.6287 20.995663" xmlns="http://www.w3.org/2000/svg">
 <g transform="translate(-52.028 -29.515)">
  <g id="svgg" transform="matrix(.26458 0 0 .26458 42.231 23.634)">
   <path d="m149.14 22.348c-0.064 0.063-0.116 2.171-0.116 4.684v4.569l-2.301 0.048-2.302 0.049-0.087 4.602-0.086 4.603-2.258 0.087-2.258 0.087-0.047 4.559-0.046 4.559h-2.147c-2.752 0-2.521-0.436-2.577 4.878l-0.046 4.415-2.215 0.048c-1.218 0.027-2.231 0.066-2.251 0.087-0.019 0.021-0.078 2.11-0.13 4.641l-0.094 4.603-2.214 0.048-2.215 0.049v4.476c0 5.345 0.236 4.893-2.553 4.893h-2.137v9.206l30.265-0.044 30.265-0.044v-9.032l-2.298-0.048-2.299-0.048-0.046-4.642-0.046-4.641-2.299-0.048-2.298-0.049-0.047-4.641-0.046-4.641-2.298-0.048-2.299-0.049-0.046-4.641-0.046-4.641h-4.516v9.206l2.298 0.048 2.299 0.049 0.046 4.641 0.046 4.641 2.302 0.048 2.301 0.049v4.476c0 5.345-0.237 4.893 2.558 4.893h2.142l-0.049 2.214-0.048 2.215-13.939 0.044-13.938 0.045v-51.24h4.684l0.046 4.646 0.046 4.646h4.516l0.049-4.255c0.065-5.608 0.337-5.037-2.397-5.037h-2.254v-4.481c0-3.254-0.058-4.538-0.209-4.69-0.223-0.223-4.151-0.306-4.365-0.092m9.263 23.245v4.602h4.516v-9.205h-4.516v4.603m-121.19 4.746c-0.173 0.11-0.209 5.357-0.174 25.659l0.044 25.522h32.479v-32.48l-11.55-0.086-11.55-0.087-0.045-9.103c-0.031-6.37-0.103-9.173-0.238-9.336-0.219-0.263-8.562-0.346-8.966-0.089m60.599 0.087c-0.139 0.166-0.209 2.901-0.241 9.338l-0.045 9.103-4.562 0.046-4.562 0.046 0.046 4.644 0.046 4.643 4.56 0.046 4.559 0.046 2e-3 11.417c2e-3 6.28 0.066 11.516 0.142 11.637 0.109 0.171 1.624 0.209 6.988 0.173l6.85-0.045v-9.206l-2.258-0.086-2.258-0.087v-13.722l4.453-0.046c3.494-0.036 4.496-0.097 4.649-0.282 0.137-0.164 0.182-1.568 0.15-4.643l-0.047-4.408-4.603-0.086-4.602-0.087-0.087-9.293-0.087-9.292-4.449-0.046c-3.579-0.037-4.487 0-4.644 0.19m93.324-0.013c-0.045 0.119-0.062 11.667-0.038 25.662l0.045 25.445h9.032l0.087-11.55 0.086-11.551 6.759-0.045c4.686-0.032 6.83-0.105 6.994-0.241 0.189-0.157 0.226-1.07 0.189-4.644l-0.047-4.449-6.947-0.086-6.948-0.087v-9.206h13.895l0.087 2.258 0.087 2.258 4.504 0.047c3.487 0.036 4.535-4e-3 4.643-0.174 0.239-0.377 0.179-13.404-0.063-13.646-0.31-0.31-32.247-0.302-32.365 9e-3m158.58 0c-0.045 0.119-0.101 4.32-0.125 9.335l-0.043 9.119-4.603 0.087-4.602 0.086-0.047 4.408c-0.032 3.075 0.013 4.479 0.149 4.643 0.154 0.185 1.155 0.246 4.65 0.282l4.453 0.046 0.087 11.551 0.087 11.55h13.721v-9.206l-2.215-0.048-2.214-0.049v-13.879l4.559-0.046 4.56-0.046 0.046-4.643 0.046-4.644-4.562-0.046-4.562-0.046-0.045-9.103c-0.032-6.37-0.103-9.173-0.239-9.336-0.272-0.328-8.978-0.343-9.101-0.015m-275.26 18.654c-0.281 0.281-0.132 9.05 0.157 9.16 0.615 0.236 8.706 0.115 8.912-0.133 0.139-0.168 0.184-1.54 0.151-4.646l-0.046-4.408-4.527-0.046c-2.491-0.025-4.581 7e-3 -4.647 0.073m144.6 16.169 0.045 16.284h27.789v-32.48l-13.939-0.044-13.939-0.045 0.044 16.285m32.691-16.067c-0.046 0.12-0.063 7.448-0.038 16.285l0.045 16.066h9.031l0.087-11.55 0.087-11.551 2.298-0.048 2.299-0.048 0.046 4.564 0.046 4.564h9.206v-18.411l-11.512-0.044c-9.117-0.036-11.529 0-11.595 0.173m27.964 0c-0.046 0.12-0.063 7.448-0.039 16.285l0.045 16.066h23.1v-9.206l-6.909-0.045-6.909-0.045 0.049-2.3 0.048-2.299 6.909-0.046 6.909-0.045-0.048-2.299-0.049-2.3-6.904-0.045-6.904-0.046v-4.507l6.904-0.046 6.904-0.045v-9.206l-11.511-0.044c-9.118-0.036-11.529 0-11.595 0.173m27.962 2e-3c-0.045 0.119-0.062 4.281-0.038 9.248l0.046 9.032 9.102 0.045c6.489 0.032 9.171 0.102 9.341 0.243 0.183 0.152 0.227 0.684 0.19 2.3l-0.049 2.102-9.292 0.087-9.292 0.086v9.206h27.789v-18.585l-9.248-0.045-9.249-0.045v-4.509l9.249-0.045 9.248-0.045 0.047-4.646 0.046-4.646h-13.903c-10.963 0-13.921 0.045-13.987 0.217m-247.41 16.111v6.95l-6.904-0.046-6.904-0.045-0.045-6.904-0.046-6.904h13.899v6.949m177.29-0.045-0.046 6.904h-9.205l-0.046-6.687c-0.025-3.677-8e-3 -6.784 0.038-6.904 0.064-0.167 1.161-0.217 4.694-0.217h4.61l-0.045 6.904m-163.01-2.244c-0.172 0.109-0.209 2.092-0.173 9.333l0.045 9.194 6.753 0.045c4.841 0.033 6.821-0.01 6.991-0.151 0.247-0.206 0.367-8.299 0.132-8.912-0.089-0.231-0.463-0.274-2.345-0.274h-2.239v-4.482c0-3.253-0.057-4.538-0.209-4.689-0.24-0.241-8.582-0.301-8.955-0.064m69.861 9.449c-0.048 0.124-0.066 2.217-0.04 4.652l0.046 4.426 6.754 0.045c4.84 0.033 6.821-0.01 6.991-0.151 0.352-0.292 0.347-8.705-5e-3 -8.997-0.16-0.134-0.931-0.184-2.301-0.152l-2.06 0.049-0.086 2.258-0.087 2.258h-4.516l-0.087-2.258-0.087-2.258-2.218-0.048c-1.693-0.037-2.238 4e-3 -2.304 0.176" fill-rule="evenodd"/>
  </g>
 </g>
</svg>
