<svg xmlns="http://www.w3.org/2000/svg" viewBox="0 0 1066.43058 278.10253"><defs><style>.a,.f{fill:none;}.a,.d{stroke:#ec2227;}.a,.b,.c,.d,.e,.f,.h,.i,.j,.k,.l,.m,.n{stroke-miterlimit:10;}.a{stroke-width:13px;}.b,.g{fill:#fff;}.b,.f{stroke:#fff;}.c{fill:#eb0d8c;stroke:#eb0d8c;}.d{fill:#ec2227;}.e{fill:#f15b2b;}.e,.h,.i,.j,.k,.l,.m,.n{stroke:#f15b2b;}.f{stroke-width:11px;}.h{fill:#616262;}.i{fill:#737272;}.j{fill:#868585;}.k{fill:#9c9a9b;}.l{fill:#b4b2b3;}.m{fill:#cdcccd;}.n{fill:#ededee;}</style></defs><title>IndieGameCon_Banner_no-background</title><line class="a" x1="729.72694" y1="133.00609" x2="312.98225" y2="132.36342"/><polygon class="b" points="313.085 125.781 312.982 133.18 312.902 138.9 299.78 138.717 299.963 125.597 313.085 125.781"/><rect class="c" x="293.68255" y="136.92245" width="13.12083" height="13.12321" transform="translate(145.64032 430.2714) rotate(-89.19837)"/><rect class="c" x="281.11133" y="97.38019" width="13.12083" height="13.12321" transform="translate(172.78338 378.71237) rotate(-89.19837)"/><rect class="c" x="280.74419" y="123.61929" width="13.12083" height="13.12321" transform="translate(146.18483 404.21727) rotate(-89.19837)"/><rect class="c" x="280.78055" y="150.26759" width="12.30238" height="13.12321" transform="translate(119.17149 430.11992) rotate(-89.19837)"/><rect class="b" x="280.37762" y="136.55327" width="13.12083" height="13.48923" transform="translate(132.70769 416.78421) rotate(-89.19837)"/><rect class="c" x="280.00991" y="176.09751" width="13.12083" height="13.12321" transform="translate(92.98775 455.22707) rotate(-89.19837)"/><rect class="c" x="267.9894" y="97.19657" width="13.12085" height="13.12321" transform="translate(160.02864 365.41067) rotate(-89.19837)"/><rect class="c" x="267.62225" y="123.4357" width="13.12083" height="13.12321" transform="translate(133.43006 390.91559) rotate(-89.19837)"/><rect class="c" x="267.25512" y="149.6748" width="13.12083" height="13.12321" transform="translate(106.83153 416.4205) rotate(-89.19837)"/><rect class="c" x="266.88799" y="175.91388" width="13.12085" height="13.12321" transform="translate(80.23302 441.92539) rotate(-89.19837)"/><rect class="c" x="254.6839" y="110.13252" width="13.12085" height="13.12321" transform="translate(133.97461 364.86145) rotate(-89.19837)"/><rect class="c" x="254.31676" y="136.37162" width="13.12085" height="13.12321" transform="translate(107.37607 390.36635) rotate(-89.19837)"/><rect class="c" x="253.94961" y="162.61073" width="13.12085" height="13.12321" transform="translate(80.77751 415.87124) rotate(-89.19837)"/><path class="c" d="M730.94308,139.42886" transform="translate(-6.93205 -11.41881)"/><rect class="b" x="267.43869" y="136.55521" width="13.12085" height="13.12321" transform="translate(120.13084 403.66801) rotate(-89.19837)"/><rect class="d" x="241.64295" y="109.95007" width="13.12085" height="13.12321" transform="translate(121.29854 351.64188) rotate(-89.19837)"/><rect class="d" x="241.27582" y="136.18914" width="13.12085" height="13.12321" transform="translate(94.70004 377.14676) rotate(-89.19837)"/><rect class="d" x="240.90868" y="162.42825" width="13.12085" height="13.12321" transform="translate(68.10149 402.65166) rotate(-89.19837)"/><rect class="e" x="228.16393" y="109.79302" width="13.12106" height="13.12411" transform="translate(108.14024 337.99728) rotate(-89.19234)"/><rect class="e" x="226.87901" y="162.23331" width="13.12085" height="13.12321" transform="translate(54.46302 388.43115) rotate(-89.19837)"/><polygon class="f" points="761.032 15.782 758.592 64.592 753.714 94.408 755.746 118.103 747.615 135.096 747.615 158.804 739.484 172.814 745.176 180.119 736.232 193.344 729.727 221.184 734.606 232.716 729.727 252.897 741.924 272.583 1049.781 272.602 1047.275 151.366 1050.713 131.916 1037.894 129.136 1058.623 62.593 1060.492 42.899 1045.439 39.705 1050.567 26.629 971.104 26.629 920.537 45.215 910.134 40.553 906.577 49.03 894.531 43.457 877.306 51.017 860.23 46.063 826.915 59.685 809.818 53.745 803.313 40.977 811.311 26.629 798.028 17.666 786.644 23.48 782.579 10.358 774.041 18.937 761.032 15.782"/><path class="g" d="M818.53821,96.51787H830.804V140.5482H818.53821Z" transform="translate(-6.93205 -11.41881)"/><path class="g" d="M838.85315,96.51787h11.38531L868.354,119.79244V96.51787h12.0763V140.5482H869.73779l-18.80743-24.1544v24.15443H838.85315Z" transform="translate(-6.93205 -11.41881)"/><path class="g" d="M888.22467,96.51787h16.98212c15.72613,0,24.84735,9.05689,24.84735,21.76377v.12573c0,12.70689-9.24695,22.14085-25.09809,22.14085H888.22467Zm17.171,33.21132c7.2959,0,12.13983-4.02476,12.13983-11.13179v-.12568c0-7.04634-4.84393-11.13478-12.13983-11.13478h-4.96954v22.39225Z" transform="translate(-6.93205 -11.41881)"/><path class="g" d="M936.58856,96.51787h12.2655V140.5482h-12.2655Z" transform="translate(-6.93205 -11.41881)"/><path class="g" d="M956.90289,96.51787h35.41437v10.37822H968.98132v6.66861h21.1341v9.624h-21.1341v6.98137h23.64984v10.37816H956.90289Z" transform="translate(-6.93205 -11.41881)"/><path class="g" d="M818.46527,171.07919V170.965c0-11.75721,9.22028-20.97745,21.72559-20.97745a23.53166,23.53166,0,0,1,16.3667,5.8768l-6.56995,7.897a14.23644,14.23644,0,0,0-9.73907-3.80551c-5.82,0-10.31568,4.89851-10.31568,11.065v.11659c0,6.51135,4.55274,11.17854,10.94995,11.17854a11.393,11.393,0,0,0,6.45429-1.67172v-4.898h-7.95294v-8.183h18.55639v18.15439a27.26961,27.26961,0,0,1-17.51861,6.22164C827.85889,191.93936,818.46527,183.29484,818.46527,171.07919Z" transform="translate(-6.93205 -11.41881)"/><path class="g" d="M878.1012,150.508h10.77655l17.17254,40.6249H894.06354l-2.93836-7.20353h-15.5606l-2.88013,7.20353H860.9281Zm9.7962,24.72094-4.49475-11.46756L878.84937,175.229Z" transform="translate(-6.93205 -11.41881)"/><path class="g" d="M909.96027,150.794h11.81427l9.624,15.618,9.62341-15.618h11.81244V191.133H941.713V167.96649l-10.31445,15.79042h-.23138l-10.25733-15.67322v23.04924H909.96027Z" transform="translate(-6.93205 -11.41881)"/><path class="g" d="M959.97125,150.794h32.44562v9.50987H971.03558V166.412h19.36286v8.817H971.03558v6.39718h21.66724V191.133H959.97125Z" transform="translate(-6.93205 -11.41881)"/><path class="g" d="M818.49512,228.13155v-.15789c0-15.96228,12.284-28.47976,28.872-28.47976,11.18914,0,18.38726,4.69393,23.2387,11.42143l-11.42413,8.84311c-3.129-3.913-6.72876-6.41783-11.971-6.41783-7.66778,0-13.06732,6.49673-13.06732,14.47517v.15787c0,8.21522,5.39954,14.633,13.06732,14.633,5.712,0,9.0763-2.66269,12.36267-6.65162l11.42322,8.1363c-5.16388,7.1216-12.12762,12.36446-24.25586,12.36446a27.81362,27.81362,0,0,1-28.24695-27.37337Q818.48636,228.607,818.49512,228.13155Z" transform="translate(-6.93205 -11.41881)"/><path class="g" d="M874.05347,228.13155v-.15789c0-15.72543,12.67474-28.47976,29.5758-28.47976,16.90052,0,29.42041,12.59639,29.42041,28.32188v.15787c0,15.72848-12.67657,28.48219-29.577,28.48219S874.05347,243.857,874.05347,228.13155Zm43.50384,0v-.15789c0-7.90251-5.71338-14.78787-14.08471-14.78787-8.29419,0-13.84949,6.72749-13.84949,14.63v.15787c0,7.90253,5.712,14.78787,14.0061,14.78787C912.00177,242.76155,917.55731,236.03406,917.55731,228.13155Z" transform="translate(-6.93205 -11.41881)"/><path class="g" d="M940.95459,200.58691H955.117l22.535,28.95339V200.58691h15.02173v54.77346H979.37354l-23.396-30.04635v30.04635H940.95459Z" transform="translate(-6.93205 -11.41881)"/><rect class="h" x="202.97041" y="162.23332" width="13.12083" height="13.1232" transform="translate(30.8889 364.52489) rotate(-89.19837)"/><rect class="i" x="170.39723" y="162.23332" width="13.12083" height="13.1232" transform="translate(-1.22855 331.95489) rotate(-89.19837)"/><rect class="j" x="137.82405" y="162.23331" width="13.12083" height="13.12321" transform="translate(-33.34601 299.3849) rotate(-89.19837)"/><rect class="k" x="105.25087" y="162.23331" width="13.12083" height="13.12321" transform="translate(-65.46347 266.81491) rotate(-89.19837)"/><rect class="l" x="72.6777" y="162.2333" width="13.12083" height="13.12322" transform="translate(-97.58092 234.24492) rotate(-89.19837)"/><rect class="m" x="40.10452" y="162.2333" width="13.12083" height="13.12322" transform="translate(-129.69838 201.67492) rotate(-89.19837)"/><rect class="n" x="7.53134" y="162.2333" width="13.12083" height="13.12323" transform="translate(-161.81584 169.10493) rotate(-89.19837)"/><rect class="h" x="202.97041" y="109.79348" width="13.12083" height="13.1232" transform="translate(83.32361 312.81871) rotate(-89.19837)"/><rect class="i" x="170.39723" y="109.79348" width="13.12083" height="13.1232" transform="translate(51.20615 280.24872) rotate(-89.19837)"/><rect class="j" x="137.82405" y="109.79347" width="13.12083" height="13.12321" transform="translate(19.0887 247.67872) rotate(-89.19837)"/><rect class="k" x="105.25087" y="109.79347" width="13.12083" height="13.12321" transform="translate(-13.02876 215.10873) rotate(-89.19837)"/><rect class="l" x="72.6777" y="109.79346" width="13.12083" height="13.12322" transform="translate(-45.14622 182.53874) rotate(-89.19837)"/><rect class="m" x="40.10452" y="109.79346" width="13.12083" height="13.12322" transform="translate(-77.26367 149.96875) rotate(-89.19837)"/><rect class="n" x="7.53134" y="109.79345" width="13.12083" height="13.12323" transform="translate(-109.38113 117.39876) rotate(-89.19837)"/></svg>