<svg xmlns="http://www.w3.org/2000/svg" viewBox="0 0 1081 301.54489"><defs><style>.a{fill:#2e3192;stroke:#2e3192;}.a,.b,.c,.d,.e,.f,.g,.h,.j,.k,.l,.m,.n,.o,.p{stroke-miterlimit:10;}.b,.h{fill:none;}.b,.f{stroke:#ed1c24;}.b,.e{stroke-width:13px;}.c,.i{fill:#fff;}.c,.h{stroke:#fff;}.d{fill:#ec008c;stroke:#ec008c;}.e{fill:#be1e2d;stroke:#be1e2d;}.f{fill:#ed1c24;}.g{fill:#f15a29;}.g,.j,.k,.l,.m,.n,.o,.p{stroke:#f15a29;}.h{stroke-width:11px;}.j{fill:#606161;}.k{fill:#787878;}.l{fill:#8f9090;}.m{fill:#a7a7a7;}.n{fill:#bebebe;}.o{fill:#d5d6d6;}.p{fill:#ededed;}</style></defs><title>IndieGameCon_Banner_2019</title><rect class="a" x="0.5" y="0.5" width="1080" height="300.54489"/><line class="b" x1="736.659" y1="139.4249" x2="319.9143" y2="138.78223"/><polygon class="c" points="320.017 132.2 319.914 139.599 319.834 145.319 306.712 145.136 306.895 132.016 320.017 132.2"/><rect class="d" x="293.68255" y="131.92245" width="13.12083" height="13.12321" transform="translate(157.57188 436.76016) rotate(-89.19837)"/><rect class="d" x="281.11133" y="92.38019" width="13.12083" height="13.12321" transform="translate(184.71494 385.20114) rotate(-89.19837)"/><rect class="d" x="280.74419" y="118.61929" width="13.12083" height="13.12321" transform="translate(158.11639 410.70603) rotate(-89.19837)"/><rect class="d" x="280.78055" y="145.26759" width="12.30238" height="13.12321" transform="translate(131.10306 436.60868) rotate(-89.19837)"/><rect class="c" x="280.37762" y="131.55327" width="13.12083" height="13.48923" transform="translate(144.63926 423.27297) rotate(-89.19837)"/><rect class="d" x="280.00991" y="171.09751" width="13.12083" height="13.12321" transform="translate(104.91931 461.71584) rotate(-89.19837)"/><rect class="d" x="267.9894" y="92.19657" width="13.12085" height="13.12321" transform="translate(171.9602 371.89944) rotate(-89.19837)"/><rect class="d" x="267.62225" y="118.4357" width="13.12083" height="13.12321" transform="translate(145.36162 397.40435) rotate(-89.19837)"/><rect class="d" x="267.25512" y="144.6748" width="13.12083" height="13.12321" transform="translate(118.76309 422.90926) rotate(-89.19837)"/><rect class="d" x="266.88799" y="170.91388" width="13.12085" height="13.12321" transform="translate(92.16459 448.41415) rotate(-89.19837)"/><rect class="d" x="254.6839" y="105.13252" width="13.12085" height="13.12321" transform="translate(145.90617 371.35021) rotate(-89.19837)"/><rect class="d" x="254.31676" y="131.37162" width="13.12085" height="13.12321" transform="translate(119.30763 396.85512) rotate(-89.19837)"/><rect class="d" x="253.94961" y="157.61073" width="13.12085" height="13.12321" transform="translate(92.70908 422.36001) rotate(-89.19837)"/><path class="d" d="M730.94308,134.42886"/><path class="e" d="M-115.51889-72.35326"/><rect class="c" x="267.43869" y="131.55521" width="13.12085" height="13.12321" transform="translate(132.0624 410.15677) rotate(-89.19837)"/><rect class="f" x="241.64295" y="104.95007" width="13.12085" height="13.12321" transform="translate(133.23011 358.13064) rotate(-89.19837)"/><rect class="f" x="241.27582" y="131.18914" width="13.12085" height="13.12321" transform="translate(106.6316 383.63552) rotate(-89.19837)"/><rect class="f" x="240.90868" y="157.42825" width="13.12085" height="13.12321" transform="translate(80.03306 409.14042) rotate(-89.19837)"/><rect class="g" x="228.16393" y="104.79302" width="13.12106" height="13.12411" transform="translate(120.0718 344.48657) rotate(-89.19234)"/><rect class="g" x="226.87901" y="157.23331" width="13.12085" height="13.12321" transform="translate(66.39459 394.91991) rotate(-89.19837)"/><polygon class="h" points="767.964 22.201 765.524 71.011 760.646 100.827 762.678 124.522 754.547 141.515 754.547 165.223 746.416 179.233 752.108 186.538 743.164 199.763 736.659 227.603 741.538 239.135 736.659 259.316 748.856 279.002 1056.713 279.021 1054.207 157.785 1057.645 138.335 1044.826 135.555 1065.555 69.012 1067.424 49.318 1052.371 46.124 1057.499 33.048 978.036 33.048 927.469 51.634 917.066 46.972 913.509 55.449 901.463 49.876 884.238 57.436 867.162 52.482 833.847 66.104 816.75 60.164 810.245 47.396 818.243 33.048 804.96 24.085 793.576 29.899 789.511 16.777 780.973 25.356 767.964 22.201"/><path class="i" d="M818.53821,91.51787H830.804V135.5482H818.53821Z"/><path class="i" d="M838.85315,91.51787h11.38531L868.354,114.79244V91.51787h12.0763V135.5482H869.73779l-18.80743-24.1544v24.15443H838.85315Z"/><path class="i" d="M888.22467,91.51787h16.98212c15.72613,0,24.84735,9.05689,24.84735,21.76377v.12573c0,12.70689-9.24695,22.14085-25.09809,22.14085H888.22467Zm17.171,33.21132c7.2959,0,12.13983-4.02476,12.13983-11.13179v-.12568c0-7.04634-4.84393-11.13478-12.13983-11.13478h-4.96954v22.39225Z"/><path class="i" d="M936.58856,91.51787h12.2655V135.5482h-12.2655Z"/><path class="i" d="M956.90289,91.51787h35.41437v10.37822H968.98132v6.66861h21.1341v9.624h-21.1341v6.98137h23.64984v10.37816H956.90289Z"/><path class="i" d="M818.46527,166.07919V165.965c0-11.75721,9.22028-20.97745,21.72559-20.97745a23.53166,23.53166,0,0,1,16.3667,5.8768l-6.56995,7.897a14.23644,14.23644,0,0,0-9.73907-3.80551c-5.82,0-10.31568,4.89851-10.31568,11.065v.11659c0,6.51135,4.55274,11.17854,10.94995,11.17854a11.393,11.393,0,0,0,6.45429-1.67172v-4.898h-7.95294v-8.183h18.55639v18.15439a27.26961,27.26961,0,0,1-17.51861,6.22164C827.85889,186.93936,818.46527,178.29484,818.46527,166.07919Z"/><path class="i" d="M878.1012,145.508h10.77655l17.17254,40.6249H894.06354l-2.93836-7.20353h-15.5606l-2.88013,7.20353H860.9281Zm9.7962,24.72094-4.49475-11.46756L878.84937,170.229Z"/><path class="i" d="M909.96027,145.794h11.81427l9.624,15.618,9.62341-15.618h11.81244V186.133H941.713V162.96649l-10.31445,15.79042h-.23138l-10.25733-15.67322v23.04924H909.96027Z"/><path class="i" d="M959.97125,145.794h32.44562v9.50987H971.03558V161.412h19.36286v8.817H971.03558v6.39718h21.66724V186.133H959.97125Z"/><path class="i" d="M818.49512,223.13155v-.15789c0-15.96228,12.284-28.47976,28.872-28.47976,11.18914,0,18.38726,4.69393,23.2387,11.42143l-11.42413,8.84311c-3.129-3.913-6.72876-6.41783-11.971-6.41783-7.66778,0-13.06732,6.49673-13.06732,14.47517v.15787c0,8.21522,5.39954,14.633,13.06732,14.633,5.712,0,9.0763-2.66269,12.36267-6.65162l11.42322,8.1363c-5.16388,7.1216-12.12762,12.36446-24.25586,12.36446a27.81362,27.81362,0,0,1-28.24695-27.37337Q818.48636,223.607,818.49512,223.13155Z"/><path class="i" d="M874.05347,223.13155v-.15789c0-15.72543,12.67474-28.47976,29.5758-28.47976,16.90052,0,29.42041,12.59639,29.42041,28.32188v.15787c0,15.72848-12.67657,28.48219-29.577,28.48219S874.05347,238.857,874.05347,223.13155Zm43.50384,0v-.15789c0-7.90251-5.71338-14.78787-14.08471-14.78787-8.29419,0-13.84949,6.72749-13.84949,14.63v.15787c0,7.90253,5.712,14.78787,14.0061,14.78787C912.00177,237.76155,917.55731,231.03406,917.55731,223.13155Z"/><path class="i" d="M940.95459,195.58691H955.117l22.535,28.95339V195.58691h15.02173v54.77346H979.37354l-23.396-30.04635v30.04635H940.95459Z"/><rect class="j" x="202.97041" y="157.23332" width="13.12083" height="13.1232" transform="translate(42.82047 371.01365) rotate(-89.19837)"/><rect class="k" x="170.39723" y="157.23332" width="13.12083" height="13.1232" transform="translate(10.70301 338.44366) rotate(-89.19837)"/><rect class="l" x="137.82405" y="157.23331" width="13.12083" height="13.12321" transform="translate(-21.41445 305.87366) rotate(-89.19837)"/><rect class="m" x="105.25087" y="157.23331" width="13.12083" height="13.12321" transform="translate(-53.5319 273.30367) rotate(-89.19837)"/><rect class="n" x="72.6777" y="157.2333" width="13.12083" height="13.12322" transform="translate(-85.64936 240.73368) rotate(-89.19837)"/><rect class="o" x="40.10452" y="157.2333" width="13.12083" height="13.12322" transform="translate(-117.76682 208.16369) rotate(-89.19837)"/><rect class="p" x="7.53134" y="157.2333" width="13.12083" height="13.12323" transform="translate(-149.88427 175.59369) rotate(-89.19837)"/><rect class="j" x="202.97041" y="104.79348" width="13.12083" height="13.1232" transform="translate(95.25518 319.30747) rotate(-89.19837)"/><rect class="k" x="170.39723" y="104.79348" width="13.12083" height="13.1232" transform="translate(63.13772 286.73748) rotate(-89.19837)"/><rect class="l" x="137.82405" y="104.79347" width="13.12083" height="13.12321" transform="translate(31.02026 254.16749) rotate(-89.19837)"/><rect class="m" x="105.25087" y="104.79347" width="13.12083" height="13.12321" transform="translate(-1.09719 221.5975) rotate(-89.19837)"/><rect class="n" x="72.6777" y="104.79346" width="13.12083" height="13.12322" transform="translate(-33.21465 189.0275) rotate(-89.19837)"/><rect class="o" x="40.10452" y="104.79346" width="13.12083" height="13.12322" transform="translate(-65.33211 156.45751) rotate(-89.19837)"/><rect class="p" x="7.53134" y="104.79345" width="13.12083" height="13.12323" transform="translate(-97.44957 123.88752) rotate(-89.19837)"/></svg>